<svg id="Layer_1" data-name="Layer 1" xmlns="http://www.w3.org/2000/svg" viewBox="0 0 330.49 64.05"><defs><style>.cls-1{fill:#009fe3;}.cls-2{fill:#1d71b8;}</style></defs><title>sidefund-logo</title><path class="cls-1" d="M145,70.47A39.51,39.51,0,0,1,156.41,72a1.14,1.14,0,0,1-.33.91,44.29,44.29,0,0,0-11-1.5c-9.07,0-13.43,4.56-13.43,11.15,0,7.83,5.41,9.59,12.72,11.41,6.59,1.63,13.76,3.72,13.76,12.52,0,7.63-5.67,12.26-14.87,12.26a31.91,31.91,0,0,1-12.59-2.35,1.64,1.64,0,0,1,.39-0.91,32.71,32.71,0,0,0,11.87,2.28c8.74,0,14.22-4,14.22-11.28,0-8.09-6.2-9.85-12.85-11.55-7-1.76-13.63-3.72-13.63-12.39C130.65,75.1,135.87,70.47,145,70.47Z" transform="translate(-130.65 -65.18)"/><path class="cls-1" d="M170.18,71.25a0.77,0.77,0,0,1,.52-0.13,0.49,0.49,0,0,1,.46.13v46.7a0.6,0.6,0,0,1-.52.13,0.66,0.66,0,0,1-.46-0.13V71.25Z" transform="translate(-130.65 -65.18)"/><path class="cls-1" d="M198.16,71.12c12.33,0,18.59,5,18.59,23.48s-6.65,23.48-18.59,23.48H186.42v-47h11.74Zm-0.2,46c11.81,0,17.81-4.83,17.81-22.5S210.1,72.1,198,72.1H187.4v45H198Z" transform="translate(-130.65 -65.18)"/><path class="cls-1" d="M254.65,71.12a1.27,1.27,0,0,1,0,1H230.91V93h20.48a1.28,1.28,0,0,1,0,1H230.91V117.1H255.3a1.26,1.26,0,0,1,0,1H229.93v-47h24.72Z" transform="translate(-130.65 -65.18)"/><path class="cls-2" d="M284.44,97h-18.2a5.36,5.36,0,0,1-.39-2.09,4.64,4.64,0,0,1,.39-2h18.2V75.17H263.64a5,5,0,0,1-.39-2,6.45,6.45,0,0,1,.39-2h25.63v46.57a7.6,7.6,0,0,1-4.83,0V97Z" transform="translate(-130.65 -65.18)"/><path class="cls-2" d="M332.7,102.75c0,10.24-6.39,16-15.91,16s-15.85-5.87-15.85-16V71.51a6.26,6.26,0,0,1,2.41-.39,5.86,5.86,0,0,1,2.41.39v32c0,7,4.11,11.15,11.15,11.15s11-4.11,11-11.15v-32a5.68,5.68,0,0,1,2.35-.39,6.25,6.25,0,0,1,2.41.39v31.24Z" transform="translate(-130.65 -65.18)"/><path class="cls-2" d="M353.39,84.49a45.51,45.51,0,0,1-3.52-7.17h-0.2s0.33,3.52.33,9.91v30.46a5.13,5.13,0,0,1-2.28.39,5,5,0,0,1-2.22-.39V71.51a8.94,8.94,0,0,1,2.87-.39,8,8,0,0,1,2.87.39l19.11,32.81a62.38,62.38,0,0,1,3.72,7.57h0.2s-0.39-4.17-.39-9.72V71.51a5.33,5.33,0,0,1,2.35-.39,4.21,4.21,0,0,1,2.15.39v46.18a7.14,7.14,0,0,1-2.74.39,8.62,8.62,0,0,1-2.93-.39Z" transform="translate(-130.65 -65.18)"/><path class="cls-2" d="M401.65,67.14s-8.22,11.8-8.22,30.07,8.22,30.07,8.22,30.07a3.49,3.49,0,0,1-1.5,1.43,4.1,4.1,0,0,1-2,.52,61.77,61.77,0,0,1-9.39-32,61.48,61.48,0,0,1,9.39-32,3.94,3.94,0,0,1,2,.52A3.87,3.87,0,0,1,401.65,67.14Z" transform="translate(-130.65 -65.18)"/><path class="cls-2" d="M424.09,71.12c12.26,0,19,5.8,19,23.48s-6.72,23.48-19,23.48H410.46v-47h13.63ZM423.7,114c8.94,0,14.22-3.72,14.22-19.37s-5.28-19.37-14.22-19.37h-8.41V114h8.41Z" transform="translate(-130.65 -65.18)"/><path class="cls-2" d="M448.29,67.14a4,4,0,0,1,1.5-1.44,4.11,4.11,0,0,1,2-.52,61.77,61.77,0,0,1,9.33,32,62.05,62.05,0,0,1-9.33,32,4.11,4.11,0,0,1-2-.52,3.51,3.51,0,0,1-1.5-1.43s8.22-11.81,8.22-30.07S448.29,67.14,448.29,67.14Z" transform="translate(-130.65 -65.18)"/></svg>